<?xml version="1.0" standalone="no"?>
<!DOCTYPE svg PUBLIC "-//W3C//DTD SVG 20010904//EN"
 "http://www.w3.org/TR/2001/REC-SVG-20010904/DTD/svg10.dtd">
<svg version="1.0" xmlns="http://www.w3.org/2000/svg"
 width="391.000000pt" height="391.000000pt" viewBox="0 0 391.000000 391.000000"
 preserveAspectRatio="xMidYMid meet">
<metadata>
Created by potrace 1.14, written by Peter Selinger 2001-2017
</metadata>
<g transform="translate(0.000000,391.000000) scale(0.100000,-0.100000)"
fill="#000000" stroke="none">
<path d="M1927 3593 c-4 -3 -7 -21 -7 -39 0 -58 -49 -203 -120 -354 -77 -164
-94 -224 -79 -288 17 -75 98 -176 191 -239 l37 -25 49 35 c60 45 134 123 158
168 32 59 25 148 -20 249 -21 47 -56 125 -78 174 -42 95 -78 228 -78 289 0 32
-3 37 -23 37 -13 0 -27 -3 -30 -7z m50 -244 c13 -40 48 -125 78 -188 82 -178
89 -226 44 -300 -19 -31 -19 -31 -45 -15 -19 13 -28 14 -33 6 -4 -7 -7 3 -7
22 0 83 -109 102 -147 24 -10 -21 -12 -37 -6 -42 5 -6 9 -14 9 -18 0 -4 -9 1
-20 12 -11 11 -20 24 -20 29 0 6 -4 12 -8 15 -5 3 -8 -8 -7 -24 2 -38 -1 -37
-25 3 -14 22 -20 50 -20 91 0 51 8 75 70 207 38 81 78 173 87 203 10 30 20 52
22 50 2 -2 14 -36 28 -75z m93 -533 c0 -2 -8 -10 -17 -17 -16 -13 -17 -12 -4
4 13 16 21 21 21 13z"/>
<path d="M2038 2884 c17 -32 39 -47 47 -34 4 7 2 17 -4 23 -6 6 -11 7 -11 2 0
-4 -10 0 -21 11 -22 19 -22 19 -11 -2z"/>
<path d="M240 3011 c0 -6 48 -59 108 -119 181 -183 304 -250 691 -379 317
-105 407 -150 512 -253 165 -164 231 -387 233 -788 1 -222 8 -215 26 25 24
318 -17 572 -127 773 -184 339 -565 555 -1247 705 -88 20 -169 38 -178 41 -10
3 -18 1 -18 -5z"/>
<path d="M3380 2960 c-329 -77 -559 -156 -749 -256 -141 -74 -221 -133 -317
-230 -135 -136 -221 -299 -266 -501 -19 -84 -22 -129 -23 -313 0 -118 4 -255
10 -305 9 -87 10 -82 16 140 4 146 13 261 23 315 57 291 172 460 389 568 45
23 192 78 327 122 271 90 391 142 519 227 83 56 247 208 270 252 10 19 9 21
-11 20 -13 0 -97 -18 -188 -39z"/>
<path d="M3590 2489 c-106 -54 -218 -84 -510 -134 -277 -48 -353 -64 -446 -95
-187 -61 -326 -157 -415 -287 -44 -64 -92 -164 -82 -173 4 -3 46 -19 93 -33
425 -131 684 -137 866 -19 100 65 128 102 317 412 66 108 102 155 184 237 67
68 100 109 97 118 -8 20 -17 18 -104 -26z m-285 -162 c-19 -11 -18 -14 28 -58
26 -26 50 -42 53 -37 4 6 0 15 -7 20 -11 8 -11 9 2 5 9 -3 22 0 29 6 11 11
-53 -98 -159 -273 -105 -174 -221 -253 -401 -275 l-55 -7 55 34 c39 24 64 48
87 86 55 93 56 177 3 270 -36 62 -87 99 -171 122 l-61 16 84 18 c91 19 481 83
513 85 l20 0 -20 -12z m-774 -183 c-54 -57 -74 -104 -75 -174 -1 -78 26 -139
84 -194 27 -25 43 -46 35 -46 -22 0 -317 76 -353 91 l-32 14 42 69 c57 96 146
181 248 238 47 27 87 48 89 48 2 0 -15 -21 -38 -46z m174 -83 c3 -29 0 -34
-30 -47 -19 -8 -36 -14 -39 -14 -5 0 -27 62 -24 65 9 6 84 33 86 30 1 -1 4
-17 7 -34z m110 3 c3 -20 4 -38 1 -41 -2 -3 -23 -2 -45 2 -36 6 -41 10 -41 34
0 35 6 41 46 41 29 0 32 -4 39 -36z"/>
<path d="M151 2497 c-6 -6 -11 -15 -11 -20 0 -5 36 -42 79 -83 96 -90 149
-162 267 -358 142 -236 220 -316 362 -369 50 -19 78 -22 222 -22 169 0 209 5
390 52 105 27 250 72 250 77 0 2 -10 25 -21 52 -74 168 -209 296 -393 373
-119 50 -235 78 -515 126 -355 61 -459 89 -572 156 -34 20 -50 24 -58 16z
m729 -242 c314 -52 477 -114 605 -228 56 -49 155 -185 155 -212 0 -8 -28 -23
-62 -34 -59 -19 -270 -71 -348 -85 l-35 -6 38 31 c111 92 128 260 37 371 -17
20 -56 49 -88 65 -133 65 -286 12 -348 -122 -46 -98 -28 -210 46 -287 52 -54
44 -59 -41 -25 -73 30 -121 68 -183 143 -55 67 -200 310 -192 322 3 4 0 14 -6
22 -8 12 -9 12 -4 -2 8 -25 -1 -22 -15 3 -8 15 -8 19 0 15 6 -4 11 -2 11 5 0
8 5 6 13 -5 11 -16 17 -16 77 -2 36 9 77 16 93 16 15 0 27 4 27 9 0 5 8 7 18
5 9 -2 31 0 47 5 l30 9 -30 2 c-16 1 -39 5 -50 10 -25 12 -2 9 205 -25z m180
-230 c0 -28 -5 -37 -30 -50 -40 -21 -44 -19 -57 16 -12 30 -11 31 30 49 57 25
57 25 57 -15z m104 13 c14 -53 9 -61 -35 -55 -22 3 -43 7 -45 10 -2 2 -1 18 2
35 6 28 11 32 39 32 25 0 34 -5 39 -22z"/>
<path d="M768 2253 c7 -3 16 -2 19 1 4 3 -2 6 -13 5 -11 0 -14 -3 -6 -6z"/>
<path d="M2495 1451 c-75 -19 -131 -54 -197 -122 -38 -39 -68 -78 -67 -87 5
-56 -1 -69 -33 -76 -17 -3 -57 -28 -87 -54 -144 -123 -209 -141 -301 -80 -30
19 -86 48 -125 63 -147 57 -157 69 -119 140 19 37 22 50 13 61 -20 24 -36 16
-99 -45 -51 -50 -60 -64 -60 -94 0 -64 47 -101 193 -153 39 -14 104 -48 144
-75 68 -47 130 -79 152 -79 5 0 29 17 53 38 42 36 196 115 248 127 22 5 28 0
54 -50 48 -92 131 -152 240 -175 113 -23 241 16 323 99 202 206 63 551 -229
566 -40 2 -86 1 -103 -4z m188 -61 c163 -61 238 -241 163 -394 -31 -63 -100
-125 -163 -147 -61 -21 -180 -17 -234 8 -62 28 -123 85 -149 138 l-21 44 35
36 c44 44 47 80 11 141 l-26 44 43 46 c40 44 94 78 148 95 48 14 138 9 193
-11z"/>
<path d="M1158 709 c-22 -13 -23 -45 -2 -53 9 -3 28 -6 42 -6 19 0 23 -3 13
-9 -9 -6 2 -16 40 -34 30 -14 83 -53 119 -87 87 -82 137 -116 215 -145 195
-74 473 -70 635 7 26 13 81 59 131 110 60 62 94 90 117 94 41 8 52 24 16 24
-15 0 -25 3 -21 6 3 4 26 6 51 6 59 -2 79 20 47 51 -23 23 -61 26 -206 17 -33
-2 -101 0 -151 5 -81 7 -101 5 -203 -21 l-113 -28 -77 17 c-42 9 -112 26 -155
38 l-79 21 -103 -21 c-102 -21 -102 -21 -175 -1 -83 22 -116 24 -141 9z"/>
</g>
</svg>
